<svg width="18px" height="18px" viewBox="0 0 18 18" version="1.1" xmlns="http://www.w3.org/2000/svg" xmlns:xlink="http://www.w3.org/1999/xlink">
    <defs>
        <path d="M12.9360481,0.530051274 C13.8973587,0.530051274 14.7151165,1.14467408 15.0177934,2.00239174 L2.97094041,2.00262613 C2.41865566,2.00262613 1.97094041,2.45034138 1.97094041,3.00262613 L1.97094041,3.00262613 L1.97035697,15.0471437 C1.11367541,14.7439067 0.5,13.9266688 0.5,12.9660994 L0.5,2.73701192 C0.5,1.51814121 1.48808994,0.530051274 2.70696065,0.530051274 L12.9360481,0.530051274 Z M5.71848076,4.99149455 C5.33357422,4.99149455 5.02154582,5.30352295 5.02154582,5.68842949 L5.02154582,15.3791439 C5.02154582,15.7640504 5.33357422,16.0760788 5.71848076,16.0760788 L15.4091952,16.0760788 C15.7941017,16.0760788 16.1061301,15.7640504 16.1061301,15.3791439 L16.1061301,5.68842949 C16.1061301,5.30352295 15.7941017,4.99149455 15.4091952,4.99149455 L5.71848076,4.99149455 Z M5.71848076,3.59762467 L15.4091952,3.59762467 C16.5639148,3.59762467 17.5,4.53370987 17.5,5.68842949 L17.5,15.3791439 C17.5,16.5338635 16.5639148,17.4699487 15.4091952,17.4699487 L5.71848076,17.4699487 C4.56376114,17.4699487 3.62767594,16.5338635 3.62767594,15.3791439 L3.62767594,5.68842949 C3.62767594,4.53370987 4.56376114,3.59762467 5.71848076,3.59762467 Z" id="path-1"></path>
    </defs>
    <g id="Entities" stroke="none" stroke-width="1" fill="none" fill-rule="evenodd">
        <g id="Entities---entity-human" transform="translate(-688.000000, -160.000000)">
            <g id="entity-header" transform="translate(128.000000, 157.000000)">
                <g id="Group" transform="translate(216.000000, 0.000000)">
                    <g id="Copy-18" transform="translate(344.000000, 3.000000)">
                        <mask id="mask-2" fill="white">
                            <use xlink:href="#path-1"></use>
                        </mask>
                        <use id="Icon" fill="#515864" fill-rule="nonzero" xlink:href="#path-1"></use>
                    </g>
                </g>
            </g>
        </g>
    </g>
</svg>
