<svg xmlns="http://www.w3.org/2000/svg" fill="currentColor" width="24" height="24" viewBox="-3 -1 24 24">
 <path d="M14.229287,0.998940817 L20.829287,7.59894082 L20.829287,20.7989408 C20.829287,22.0089408 19.839287,22.9989408 18.629287,22.9989408 L5.41828699,22.9989408 C4.20828699,22.9989408 3.22928699,22.0089408 3.22928699,20.7989408 L3.24028699,3.19894082 C3.24028699,1.98894082 4.21928699,0.998940817 5.42928699,0.998940817 L14.229287,0.998940817 Z M13.388287,2.99894082 L5.42928699,2.99894082 C5.32905288,2.99894082 5.24028699,3.08832314 5.2402866,3.20019082 L5.22928699,20.7989408 C5.22928699,20.9095585 5.31805288,20.9989408 5.41828699,20.9989408 L18.629287,20.9989408 C18.7347175,20.9989408 18.829287,20.9043713 18.829287,20.7989408 L18.828287,8.46194082 L13.3888284,8.46233807 L13.388287,2.99894082 Z" transform="translate(-3 -1)"/>
</svg>
