<svg xmlns="http://www.w3.org/2000/svg" fill="currentColor" width="24" height="24" viewBox="-1 -1 24 24">
  <path d="M3.80006088,14.4876295 L9.70270753,20.4957255 C10.183931,20.9769489 10.7489731,21.2085236 11.4486571,21.2085236 L18.1827326,21.2085236 C18.8569969,21.2085236 19.418954,20.9763099 19.9154742,20.4895254 C20.4076634,20.0069869 20.6414802,19.4568297 20.6414802,18.7887153 L20.6414802,6.71748799 C20.6414802,6.57555942 20.6116622,6.48551326 20.5189502,6.35388924 C20.4487914,6.25428405 20.1758686,6.10322117 20.0053777,6.10296728 C19.5999673,6.11265281 19.4351164,6.20437987 19.3780687,6.29367502 C19.2536782,6.50447527 19.2158157,6.60972132 19.2157926,6.72389691 L19.1827057,11.3187512 L17.4026399,11.3123423 L17.4026399,4.22536363 C17.4026399,4.08176592 17.3446639,3.91821114 17.2504025,3.82078773 C17.1563903,3.71240214 16.9146743,3.61757224 16.6353279,3.61757224 C16.3292897,3.61757224 16.112312,3.69838664 15.9703644,3.86695041 C15.9191036,3.91821114 15.8611276,4.08176592 15.861125,4.22751771 L15.8439731,11.3144963 L14.0638869,11.3123423 L14.0638869,3.40763533 C14.0638869,3.24336354 14.0142709,3.09905 13.9741199,3.05889902 C13.7562986,2.84107775 13.6637654,2.79336851 13.3254753,2.79336851 C12.9651225,2.79336851 12.796964,2.87348273 12.6115477,3.05889902 C12.5713967,3.09905 12.5217806,3.24336354 12.5217729,3.40391314 L12.5548308,11.3086201 L10.774764,11.3173796 L10.7416918,5.47142581 C10.7416918,5.33219289 10.6865629,5.1794194 10.6324551,5.12531154 C10.4612041,4.95406051 10.2633557,4.857159 10.0156226,4.857159 C9.75881958,4.857159 9.53257173,4.96446207 9.37172226,5.12531154 C9.3176144,5.1794194 9.26248553,5.33219289 9.26248553,5.47142581 L9.26248553,17.0157464 L4.57725007,13.9239918 C4.55480161,13.9168953 4.52997367,13.9134188 4.49924133,13.9134188 C4.44756654,13.9134188 4.43316621,13.9185013 4.41650403,13.9327832 L4.17214715,14.1422319 C4.13291435,14.178026 4.08934223,14.2180819 4.04199979,14.2618894 C3.96802659,14.3303392 3.88678106,14.4061485 3.80006088,14.4876295 Z M19.1827287,4.43293087 C19.4246367,4.36784305 19.6919389,4.33003976 19.98412,4.32313235 C20.773694,4.32313235 21.5804025,4.76964586 21.974262,5.3288118 C22.2738762,5.75417673 22.4215691,6.20018778 22.4215691,6.71748799 L22.4215691,18.7887153 C22.4215691,19.937784 21.993422,20.945189 21.1616635,21.7606385 C20.3342361,22.5718418 19.3256513,22.9886124 18.1827326,22.9886124 L11.4486571,22.9886124 C10.2792385,22.9886124 9.26075913,22.5712028 8.43844998,21.7488444 L1.26658173,14.4489071 L1.91415275,13.8253202 C2.25566364,13.4964578 2.58256372,13.1870904 2.83301096,12.9553435 C2.95598016,12.8415562 3.05751291,12.749268 3.13262348,12.6831207 C3.18908744,12.6337337 3.18908744,12.6337337 3.24245092,12.5895079 C3.24202665,12.5708659 3.2418139,12.5615177 3.31551849,12.5338878 C3.65152659,12.2680076 4.05723398,12.13333 4.49924133,12.13333 C4.81763676,12.13333 5.12274985,12.2037407 5.40349406,12.3441128 L5.49567282,12.3973168 L7.4823967,13.7083422 L7.4823967,5.47142581 C7.4823967,4.88603802 7.70192317,4.27768487 8.11300938,3.86659866 C8.58811141,3.39149663 9.25107762,3.07707017 10.0156226,3.07707017 C10.2770291,3.07707017 10.5224585,3.11297215 10.7515245,3.17944479 C10.7968336,2.65575625 10.998546,2.15447488 11.3528348,1.80018614 C11.8519485,1.30107247 12.4560212,1.01327969 13.3254753,1.01327969 C14.1983639,1.01327969 14.7094237,1.27677709 15.2328328,1.80018614 C15.315137,1.88249041 15.3892072,1.97272747 15.4549952,2.06933538 C15.8089444,1.91341146 16.2123152,1.83748341 16.6353279,1.83748341 C17.4001901,1.83748341 18.1374017,2.12670598 18.5521161,2.60823753 C18.9634405,3.01956193 19.1827287,3.63819111 19.1827287,4.22536363 L19.1827287,4.43293087 Z" transform="translate(-1 -1)"/>
</svg>
