<svg xmlns="http://www.w3.org/2000/svg" xmlns:xlink="http://www.w3.org/1999/xlink" fill="currentColor" width="24" height="24" viewBox="0 -3 24 17">
  <defs>
    <path id="unrevoke-24-a" d="M12,7.7 C14.3265993,7.7 16.2,9.6319445 16.2,12 C16.2,14.3680555 14.3265993,16.3 12,16.3 C9.67340073,16.3 7.8,14.3680555 7.8,12 C7.8,9.6319445 9.67340073,7.7 12,7.7 Z M11.9970222,4.00000443 C17.0996728,4.01518146 21.7322683,6.96319681 23.9046171,11.5737749 C24.0302114,11.8403353 24.0318483,12.1487191 23.9090909,12.4165978 C21.7750656,17.0734227 17.1225074,20.0591667 12,20.0591667 C6.87749259,20.0591667 2.22493436,17.0734227 0.0909090909,12.4165978 C-0.0318483347,12.1487191 -0.0302114127,11.8403353 0.0953828512,11.5737749 C2.26773168,6.96319681 6.90032722,4.01518146 11.9970222,4.00000443 Z M11.9970222,5.99999557 C7.83549455,6.01240557 4.03372176,8.33589288 2.11352281,12.0058171 C4.00291742,15.7089057 7.8164959,18.0591667 12,18.0591667 C16.1835041,18.0591667 19.9970826,15.7089057 21.8864772,12.0058171 C19.9662782,8.33589288 16.1645055,6.01240557 11.9970222,5.99999557 Z"/>
  </defs>
  <use transform="translate(0 -4)" xlink:href="#unrevoke-24-a"/>
</svg>
