<svg xmlns="http://www.w3.org/2000/svg" fill="currentColor" width="24" height="24" viewBox="-2 -1 24 24">
  <path d="M12,14.1645361 C17.5240905,14.1645361 20.8988882,16.5799996 21.8042405,21.2919631 C21.9101297,21.8430701 21.5492093,22.3756708 20.9981023,22.48156 C20.4469953,22.5874492 19.9143946,22.2265288 19.8085054,21.6754218 C19.0991116,17.9833368 16.602994,16.196776 12,16.196776 C7.39700603,16.196776 4.90088839,17.9833368 4.1914946,21.6754218 C4.0856054,22.2265288 3.55300474,22.5874492 3.00189772,22.48156 C2.45079069,22.3756708 2.08987033,21.8430701 2.19575952,21.2919631 C3.10111182,16.5799996 6.47590947,14.1645361 12,14.1645361 Z M12.1505363,1.5 C15.5021304,1.5 17.3816724,3.92058126 17.3816724,7.59920049 C17.3816724,10.895867 14.817217,13.698401 12.1505363,13.698401 C9.48385553,13.698401 6.91940023,10.895867 6.91940023,7.59920049 C6.91940023,3.92058126 8.79894222,1.5 12.1505363,1.5 Z M12.1505363,3.53223991 C10.0498381,3.53223991 8.95164014,4.94656178 8.95164014,7.59920049 C8.95164014,9.81178346 10.6484861,11.6661611 12.1505363,11.6661611 C13.6525865,11.6661611 15.3494324,9.81178346 15.3494324,7.59920049 C15.3494324,4.94656178 14.2512345,3.53223991 12.1505363,3.53223991 Z" transform="translate(-2 -1)"/>
</svg>
